<?xml version="1.0" encoding="UTF-8" standalone="no"?>
<svg
   viewBox="0 0 132 32"
   role="img"
   aria-label="daryo"
   version="1.1"
   id="svg1"
   sodipodi:docname="logo.svg"
   inkscape:version="1.4.4 (dcaf3e7, 2026-05-05)"
   xmlns:inkscape="http://www.inkscape.org/namespaces/inkscape"
   xmlns:sodipodi="http://sodipodi.sourceforge.net/DTD/sodipodi-0.dtd"
   xmlns="http://www.w3.org/2000/svg"
   xmlns:svg="http://www.w3.org/2000/svg">
  <defs
     id="defs1" />
  <sodipodi:namedview
     id="namedview1"
     pagecolor="#ffffff"
     bordercolor="#000000"
     borderopacity="0.25"
     inkscape:showpageshadow="2"
     inkscape:pageopacity="0.0"
     inkscape:pagecheckerboard="0"
     inkscape:deskcolor="#d1d1d1"
     inkscape:zoom="8.937725"
     inkscape:cx="64.334045"
     inkscape:cy="7.6641427"
     inkscape:window-width="1280"
     inkscape:window-height="800"
     inkscape:window-x="0"
     inkscape:window-y="30"
     inkscape:window-maximized="0"
     inkscape:current-layer="svg1" />
  <path
     style="fill:#03a7a7;stroke:none;stroke-width:0.0318317"
     d="M 9.2185214,7.3133756 C 8.636669,7.3899996 8.0970655,7.5181931 7.5632722,7.7703679 7.1816745,7.9506432 6.8348307,8.1879687 6.5128248,8.4597831 4.254085,10.366467 4.7939158,13.58223 4.7939158,16.212747 v 2.482874 c 0,0.763099 0.07507,1.517844 0.8912849,1.83138 0.9245237,0.355136 1.5374555,-0.382213 2.0780254,-1.003756 0.3510366,-0.403622 0.707204,-0.803077 1.0548678,-1.209605 1.4597731,-1.706945 2.9438801,-3.39274 4.4112211,-5.093075 0.551635,-0.639226 1.199738,-1.718947 2.069061,-1.925719 0.847046,-0.201472 1.481823,0.438477 2.100895,0.910788 0.299093,0.228185 0.657652,0.442267 0.901822,0.731294 1.140886,1.350441 -0.666332,2.65835 -1.538458,3.530472 -2.742557,2.742561 -5.406276,5.56544 -8.1489153,8.308077 -0.5848521,0.584853 -1.4093735,1.227125 -1.783514,1.973566 -0.3252845,0.64899 -0.1589136,1.473808 0.4147489,1.925255 0.2024494,0.159318 0.4460413,0.274249 0.7002959,0.320011 0.4037277,0.07266 0.8633879,0.01479 1.2732709,0.01479 h 2.4828736 c 2.766546,0 5.472996,0.188242 8.053427,-0.996607 0.895113,-0.411011 1.737117,-0.967601 2.482873,-1.609444 3.898936,-3.355667 4.783774,-9.198219 2.333437,-13.659955 -0.51437,-0.9366 -1.189646,-1.82302 -1.983292,-2.541134 C 20.97066,8.7386822 18.939317,7.697575 16.762635,7.4043557 15.438869,7.2260305 14.085882,7.2998708 12.751842,7.2998708 c -1.149264,0 -2.394602,-0.1364484 -3.5333206,0.013509 M 2.8203493,25.107333 c -0.4029007,0.05485 -0.7592947,0.177643 -1.0821572,0.432603 -1.54992595,1.223945 -0.4731624,3.712328 1.4641355,3.459953 1.9948987,-0.25988 2.2719055,-3.160739 0.3819782,-3.808087 -0.2372838,-0.08128 -0.5150076,-0.118357 -0.7639565,-0.08447 z"
     id="path1" />
  <path
     d="m 44.112624,19.967946 c 0,0.469333 -0.044,0.924 -0.132,1.364 -0.088,0.44 -0.234667,0.836 -0.44,1.188 -0.205333,0.337333 -0.484,0.608667 -0.836,0.814 -0.337333,0.205333 -0.762667,0.308 -1.276,0.308 -0.484,0 -0.902,-0.102667 -1.254,-0.308 -0.337333,-0.22 -0.623333,-0.498667 -0.858,-0.836 -0.22,-0.352 -0.381333,-0.748 -0.484,-1.188 -0.102667,-0.44 -0.154,-0.88 -0.154,-1.32 0,-0.469333 0.044,-0.916667 0.132,-1.342 0.102667,-0.44 0.256667,-0.828667 0.462,-1.166 0.22,-0.337333 0.506,-0.608667 0.858,-0.814 0.352,-0.205333 0.784667,-0.308 1.298,-0.308 0.513333,0 0.938667,0.102667 1.276,0.308 0.337333,0.205333 0.608667,0.476667 0.814,0.814 0.22,0.322667 0.374,0.704 0.462,1.144 0.088,0.425333 0.132,0.872667 0.132,1.342 z m 0.044,4.268 v 1.452 h 2.97 V 9.9799463 h -3.124 v 5.7199997 h -0.044 c -0.352,-0.557333 -0.836,-0.975333 -1.452,-1.254 -0.601333,-0.293333 -1.239333,-0.44 -1.914,-0.44 -0.836,0 -1.569333,0.168667 -2.2,0.506 -0.630667,0.322667 -1.158667,0.755333 -1.584,1.298 -0.410667,0.542667 -0.726,1.173333 -0.946,1.892 -0.205333,0.704 -0.308,1.437333 -0.308,2.2 0,0.792 0.102667,1.554667 0.308,2.288 0.22,0.733333 0.535333,1.386 0.946,1.958 0.425333,0.557333 0.960667,1.004667 1.606,1.342 0.645333,0.322667 1.393333,0.484 2.244,0.484 0.748,0 1.415333,-0.132 2.002,-0.396 0.601333,-0.278667 1.085333,-0.726 1.452,-1.342 z m 4.692001,-6.424 c 0.044,-0.733333 0.227333,-1.342 0.55,-1.826 0.322667,-0.484 0.733333,-0.872667 1.232,-1.166 0.498667,-0.293333 1.056,-0.498667 1.672,-0.616 0.630667,-0.132 1.261333,-0.198 1.892,-0.198 0.572,0 1.151333,0.044 1.738,0.132 0.586667,0.07333 1.122,0.227333 1.606,0.462 0.484,0.234667 0.88,0.564667 1.188,0.99 0.308,0.410667 0.462,0.960667 0.462,1.65 v 5.918 c 0,0.513333 0.02933,1.004667 0.088,1.474 0.05867,0.469333 0.161333,0.821333 0.308,1.056 h -3.168 c -0.05867,-0.176 -0.11,-0.352 -0.154,-0.528 -0.02933,-0.190667 -0.05133,-0.381333 -0.066,-0.572 -0.498667,0.513333 -1.085333,0.872667 -1.76,1.078 -0.674667,0.205333 -1.364,0.308 -2.068,0.308 -0.542667,0 -1.048667,-0.066 -1.518,-0.198 -0.469333,-0.132 -0.88,-0.337333 -1.232,-0.616 -0.352,-0.278667 -0.630667,-0.630667 -0.836,-1.056 -0.190667,-0.425333 -0.286,-0.931333 -0.286,-1.518 0,-0.645333 0.11,-1.173333 0.33,-1.584 0.234667,-0.425333 0.528,-0.762667 0.88,-1.012 0.366667,-0.249333 0.777333,-0.432667 1.232,-0.55 0.469333,-0.132 0.938667,-0.234667 1.408,-0.308 0.469333,-0.07333 0.931333,-0.132 1.386,-0.176 0.454667,-0.044 0.858,-0.11 1.21,-0.198 0.352,-0.088 0.630667,-0.212667 0.836,-0.374 0.205333,-0.176 0.300667,-0.425333 0.286,-0.748 0,-0.337333 -0.05867,-0.601333 -0.176,-0.792 -0.102667,-0.205333 -0.249333,-0.359333 -0.44,-0.462 -0.176,-0.117333 -0.388667,-0.190667 -0.638,-0.22 -0.234667,-0.044 -0.491333,-0.066 -0.77,-0.066 -0.616,0 -1.1,0.132 -1.452,0.396 -0.352,0.264 -0.557333,0.704 -0.616,1.32 z m 7.216,2.31 c -0.132,0.117333 -0.300667,0.212667 -0.506,0.286 -0.190667,0.05867 -0.403333,0.11 -0.638,0.154 -0.22,0.044 -0.454667,0.08067 -0.704,0.11 -0.249333,0.02933 -0.498667,0.066 -0.748,0.11 -0.234667,0.044 -0.469333,0.102667 -0.704,0.176 -0.22,0.07333 -0.418,0.176 -0.594,0.308 -0.161333,0.117333 -0.293333,0.271333 -0.396,0.462 -0.102667,0.190667 -0.154,0.432667 -0.154,0.726 0,0.278667 0.05133,0.513333 0.154,0.704 0.102667,0.190667 0.242,0.344667 0.418,0.462 0.176,0.102667 0.381333,0.176 0.616,0.22 0.234667,0.044 0.476667,0.066 0.726,0.066 0.616,0 1.092667,-0.102667 1.43,-0.308 0.337333,-0.205333 0.586667,-0.447333 0.748,-0.726 0.161333,-0.293333 0.256667,-0.586667 0.286,-0.88 0.044,-0.293333 0.066,-0.528 0.066,-0.704 z m 5.043987,-5.808 v 11.374 h 3.124 v -5.126 c 0,-0.513333 0.05133,-0.99 0.154,-1.43 0.102667,-0.44 0.271333,-0.821333 0.506,-1.144 0.249333,-0.337333 0.572,-0.601333 0.968,-0.792 0.396,-0.190667 0.88,-0.286 1.452,-0.286 0.190667,0 0.388667,0.01467 0.594,0.044 1.10687,0.01467 1.189608,0.720591 1.336274,0.749924 0,0 -1.284941,-3.697924 -1.490274,-3.697924 -0.396,0 -0.777333,0.05867 -1.144,0.176 -0.366667,0.117333 -0.711333,0.286 -1.034,0.506 -0.322667,0.205333 -0.608667,0.462 -0.858,0.77 -0.249333,0.293333 -0.447333,0.616 -0.594,0.968 h -0.044 v -2.112 z m 13.667999,12.782 4.752,-12.782 h -3.234 l -2.486,7.788 h -0.044 L 71.39321,15.500595 c -0.476823,-0.892798 -1.490079,-1.552919 -3.648949,-1.513067 l 4.10635,10.996418 c 0.088,0.22 0.132,0.454667 0.132,0.704 0,0.337333 -0.102667,0.645333 -0.308,0.924 -0.190667,0.278667 -0.491333,0.44 -0.902,0.484 -0.308,0.01467 -0.616,0.0073 -0.924,-0.022 -0.308,-0.02933 -0.608667,-0.05867 -0.902,-0.088 v 2.574 c 0.322667,0.02933 0.638,0.05133 0.946,0.066 0.322667,0.02933 0.645333,0.044 0.968,0.044 1.070667,0 1.906667,-0.198 2.508,-0.594 0.601333,-0.396 1.070667,-1.056 1.408,-1.98 z m 8.07998,-7.084 c 0,-0.454667 0.044,-0.902 0.132,-1.342 0.088,-0.44 0.234667,-0.828667 0.44,-1.166 0.22,-0.337333 0.506,-0.608667 0.858,-0.814 0.352,-0.22 0.792,-0.33 1.32,-0.33 0.528,0 0.968,0.11 1.32,0.33 0.366667,0.205333 0.652667,0.476667 0.858,0.814 0.22,0.337333 0.374,0.726 0.462,1.166 0.088,0.44 0.132,0.887333 0.132,1.342 0,0.454667 -0.044,0.902 -0.132,1.342 -0.088,0.425333 -0.242,0.814 -0.462,1.166 -0.205333,0.337333 -0.491333,0.608667 -0.858,0.814 -0.352,0.205333 -0.792,0.308 -1.32,0.308 -0.528,0 -0.968,-0.102667 -1.32,-0.308 -0.352,-0.205333 -0.638,-0.476667 -0.858,-0.814 -0.205333,-0.352 -0.352,-0.740667 -0.44,-1.166 -0.088,-0.44 -0.132,-0.887333 -0.132,-1.342 z m -3.124,0 c 0,0.909333 0.139333,1.730667 0.418,2.464 0.278667,0.733333 0.674667,1.364 1.188,1.892 0.513333,0.513333 1.129333,0.909333 1.848,1.188 0.718667,0.278667 1.525333,0.418 2.42,0.418 0.894667,0 1.701333,-0.139333 2.42,-0.418 0.733333,-0.278667 1.356667,-0.674667 1.87,-1.188 0.513333,-0.528 0.909333,-1.158667 1.188,-1.892 0.278667,-0.733333 0.418,-1.554667 0.418,-2.464 0,-0.909333 -0.139333,-1.730667 -0.418,-2.464 -0.278667,-0.748 -0.674667,-1.378667 -1.188,-1.892 -0.513333,-0.528 -1.136667,-0.931333 -1.87,-1.21 -0.718667,-0.293333 -1.525333,-0.44 -2.42,-0.44 -0.894667,0 -1.701333,0.146667 -2.42,0.44 -0.718667,0.278667 -1.334667,0.682 -1.848,1.21 -0.513333,0.513333 -0.909333,1.144 -1.188,1.892 -0.278667,0.733333 -0.418,1.554667 -0.418,2.464 z"
     id="text1"
     style="font-weight:650;font-size:22px;font-family:'Helvetica Neue', Helvetica, Arial, sans-serif;letter-spacing:-0.5;fill:#2598c1"
     aria-label="daryo"
     sodipodi:nodetypes="ssccsccssccsssccsccccccccscccscccsccccsscscscsssccccsssscscccssscccccsscccccscccssscsssccsccccsscssccssccccccccccccccsccscccsscssccsccsscccssccssscssccsscccscccs" />
</svg>
